<svg width="106" height="111" viewBox="0 0 106 111" fill="none" xmlns="http://www.w3.org/2000/svg">
<path d="M18.4123 48.5704C18.4123 65.6134 32.2778 79.4789 49.3207 79.4789C66.3637 79.4789 80.2292 65.6134 80.2292 48.5704C80.2292 31.5275 66.3637 17.662 49.3207 17.662C32.2778 17.662 18.4123 31.5275 18.4123 48.5704ZM45.0324 52.9859H53.6094C53.0477 62.5673 50.7458 68.4372 49.321 70.2473C47.896 68.4372 45.5941 62.5673 45.0324 52.9859ZM45.0324 44.1549C45.5941 34.5736 47.896 28.7037 49.3207 26.8936C50.7455 28.7037 53.0474 34.5736 53.6091 44.1549H45.0324ZM38.6102 29.2741C37.2608 33.6172 36.4669 38.8016 36.1882 44.1549H27.6878C28.9915 37.7575 33.0726 32.3603 38.6102 29.2741ZM27.6878 52.9859H36.1885C36.4669 58.3393 37.2608 63.5237 38.6105 67.8668C33.0726 64.7806 28.9915 59.3834 27.6878 52.9859ZM60.0313 67.8668C61.3806 63.5237 62.1745 58.3393 62.4533 52.9859H70.954C69.6503 59.3834 65.5692 64.7806 60.0313 67.8668ZM70.954 44.1549H62.4533C62.1748 38.8016 61.3809 33.6172 60.0313 29.2741C65.5692 32.3603 69.6503 37.7575 70.954 44.1549Z" fill="#2257B5"/>
<path d="M49.3205 88.31C27.4081 88.31 9.581 70.4828 9.581 48.5705C9.581 26.6581 27.4078 8.831 49.3205 8.831C51.759 8.831 53.736 6.85403 53.736 4.4155C53.736 1.97697 51.759 0 49.3205 0C22.5387 0 0.75 21.7887 0.75 48.5705C0.75 75.3522 22.5387 97.141 49.3205 97.141C51.759 97.141 53.736 95.164 53.736 92.7255C53.736 90.2869 51.759 88.31 49.3205 88.31Z" fill="#2257B5"/>
<path d="M100.834 91.2518L89.1431 91.2524C89.142 91.2524 89.1408 91.2524 89.1393 91.2524L72.4261 91.2536L69.297 86.0383C68.0424 83.9471 65.3298 83.2689 63.2389 84.5238C61.1477 85.7784 60.4698 88.4907 61.7244 90.5819L66.1399 97.941C66.9379 99.2713 68.3753 100.085 69.9263 100.085L79.4591 100.084L76.8757 103.099C75.2891 104.951 75.504 107.738 77.3558 109.325C78.1886 110.039 79.21 110.388 80.2268 110.388C81.4714 110.388 82.7086 109.864 83.5817 108.845L91.0889 100.083L100.835 100.083C103.273 100.083 105.25 98.1056 105.25 95.667C105.25 93.2285 103.273 91.2518 100.834 91.2518Z" fill="#2257B5"/>
</svg>
