<svg width="154" height="36" viewBox="0 0 154 36" fill="none" xmlns="http://www.w3.org/2000/svg">
<path d="M5.76001 15.84C5.76001 21.3981 10.2819 25.92 15.84 25.92C21.3981 25.92 25.92 21.3981 25.92 15.84C25.92 10.2819 21.3981 5.76001 15.84 5.76001C10.2819 5.76001 5.76001 10.2819 5.76001 15.84ZM14.4415 17.28H17.2386C17.0554 20.4047 16.3047 22.319 15.8401 22.9093C15.3753 22.319 14.6246 20.4047 14.4415 17.28ZM14.4415 14.4C14.6246 11.2753 15.3753 9.36096 15.84 8.77066C16.3046 9.36096 17.0553 11.2753 17.2385 14.4H14.4415ZM12.347 9.54701C11.907 10.9634 11.6481 12.6541 11.5571 14.4H8.78496C9.21014 12.3136 10.5411 10.5535 12.347 9.54701ZM8.78496 17.28H11.5572C11.6481 19.0258 11.907 20.7166 12.3471 22.133C10.5411 21.1265 9.21014 19.3663 8.78496 17.28ZM19.3329 22.133C19.773 20.7166 20.0319 19.0258 20.1228 17.28H22.8951C22.4699 19.3663 21.139 21.1265 19.3329 22.133ZM22.8951 14.4H20.1228C20.032 12.6541 19.7731 10.9634 19.3329 9.54701C21.139 10.5535 22.4699 12.3136 22.8951 14.4Z" fill="#2257B5"/>
<path d="M15.84 28.7999C8.69383 28.7999 2.87999 22.9861 2.87999 15.84C2.87999 8.69383 8.69374 2.87999 15.84 2.87999C16.6352 2.87999 17.28 2.23526 17.28 1.44C17.28 0.644734 16.6352 0 15.84 0C7.10581 0 0 7.10581 0 15.84C0 24.5741 7.10581 31.6799 15.84 31.6799C16.6352 31.6799 17.28 31.0352 17.28 30.2399C17.28 29.4447 16.6352 28.7999 15.84 28.7999Z" fill="#2257B5"/>
<path d="M32.6397 29.7594L28.827 29.7596C28.8266 29.7596 28.8262 29.7596 28.8258 29.7596L23.3752 29.76L22.3547 28.0591C21.9456 27.3771 21.0609 27.156 20.379 27.5652C19.697 27.9744 19.476 28.8589 19.8851 29.5409L21.3251 31.9409C21.5854 32.3747 22.0541 32.64 22.56 32.64L25.6688 32.6398L24.8263 33.6231C24.3089 34.227 24.379 35.136 24.9829 35.6535C25.2545 35.8862 25.5876 36 25.9192 36C26.3251 36 26.7286 35.8293 27.0133 35.4969L29.4616 32.6396L32.6399 32.6394C33.4352 32.6394 34.0798 31.9945 34.0798 31.1993C34.0798 30.404 33.435 29.7594 32.6397 29.7594Z" fill="#2257B5"/>
<path d="M58.7958 14.672C58.7958 15.8107 58.5345 16.856 58.0118 17.808C57.4892 18.7413 56.6865 19.4973 55.6038 20.076C54.5212 20.6547 53.1772 20.944 51.5718 20.944H48.6038V28H43.8158V8.344H51.5718C53.1398 8.344 54.4652 8.61467 55.5478 9.156C56.6305 9.69733 57.4425 10.444 57.9838 11.396C58.5252 12.348 58.7958 13.44 58.7958 14.672ZM51.2078 17.136C52.1225 17.136 52.8038 16.9213 53.2518 16.492C53.6998 16.0627 53.9238 15.456 53.9238 14.672C53.9238 13.888 53.6998 13.2813 53.2518 12.852C52.8038 12.4227 52.1225 12.208 51.2078 12.208H48.6038V17.136H51.2078ZM68.4005 28.224C66.8698 28.224 65.4885 27.8973 64.2565 27.244C63.0432 26.5907 62.0818 25.6573 61.3725 24.444C60.6818 23.2307 60.3365 21.812 60.3365 20.188C60.3365 18.5827 60.6912 17.1733 61.4005 15.96C62.1098 14.728 63.0805 13.7853 64.3125 13.132C65.5445 12.4787 66.9258 12.152 68.4565 12.152C69.9872 12.152 71.3685 12.4787 72.6005 13.132C73.8325 13.7853 74.8032 14.728 75.5125 15.96C76.2218 17.1733 76.5765 18.5827 76.5765 20.188C76.5765 21.7933 76.2125 23.212 75.4845 24.444C74.7752 25.6573 73.7952 26.5907 72.5445 27.244C71.3125 27.8973 69.9312 28.224 68.4005 28.224ZM68.4005 24.08C69.3152 24.08 70.0898 23.744 70.7245 23.072C71.3778 22.4 71.7045 21.4387 71.7045 20.188C71.7045 18.9373 71.3872 17.976 70.7525 17.304C70.1365 16.632 69.3712 16.296 68.4565 16.296C67.5232 16.296 66.7485 16.632 66.1325 17.304C65.5165 17.9573 65.2085 18.9187 65.2085 20.188C65.2085 21.4387 65.5072 22.4 66.1045 23.072C66.7205 23.744 67.4858 24.08 68.4005 24.08ZM81.5246 10.752C80.6846 10.752 79.9939 10.5093 79.4526 10.024C78.9299 9.52 78.6686 8.904 78.6686 8.176C78.6686 7.42933 78.9299 6.81333 79.4526 6.328C79.9939 5.824 80.6846 5.572 81.5246 5.572C82.3459 5.572 83.0179 5.824 83.5406 6.328C84.0819 6.81333 84.3526 7.42933 84.3526 8.176C84.3526 8.904 84.0819 9.52 83.5406 10.024C83.0179 10.5093 82.3459 10.752 81.5246 10.752ZM83.9046 12.376V28H79.1166V12.376H83.9046ZM96.8944 12.208C98.7238 12.208 100.18 12.8053 101.262 14C102.364 15.176 102.914 16.8 102.914 18.872V28H98.1544V19.516C98.1544 18.4707 97.8838 17.6587 97.3424 17.08C96.8011 16.5013 96.0731 16.212 95.1584 16.212C94.2438 16.212 93.5158 16.5013 92.9744 17.08C92.4331 17.6587 92.1624 18.4707 92.1624 19.516V28H87.3744V12.376H92.1624V14.448C92.6478 13.7573 93.3011 13.216 94.1224 12.824C94.9438 12.4133 95.8678 12.208 96.8944 12.208ZM114.95 23.94V28H112.514C110.778 28 109.424 27.58 108.454 26.74C107.483 25.8813 106.998 24.4907 106.998 22.568V16.352H105.094V12.376H106.998V8.568H111.786V12.376H114.922V16.352H111.786V22.624C111.786 23.0907 111.898 23.4267 112.122 23.632C112.346 23.8373 112.719 23.94 113.242 23.94H114.95ZM132.345 19.936C132.345 20.384 132.317 20.8507 132.261 21.336H121.425C121.499 22.3067 121.807 23.0533 122.349 23.576C122.909 24.08 123.59 24.332 124.393 24.332C125.587 24.332 126.418 23.828 126.885 22.82H131.981C131.719 23.8467 131.243 24.7707 130.553 25.592C129.881 26.4133 129.031 27.0573 128.005 27.524C126.978 27.9907 125.83 28.224 124.561 28.224C123.03 28.224 121.667 27.8973 120.473 27.244C119.278 26.5907 118.345 25.6573 117.673 24.444C117.001 23.2307 116.665 21.812 116.665 20.188C116.665 18.564 116.991 17.1453 117.645 15.932C118.317 14.7187 119.25 13.7853 120.445 13.132C121.639 12.4787 123.011 12.152 124.561 12.152C126.073 12.152 127.417 12.4693 128.593 13.104C129.769 13.7387 130.683 14.644 131.337 15.82C132.009 16.996 132.345 18.368 132.345 19.936ZM127.445 18.676C127.445 17.8547 127.165 17.2013 126.605 16.716C126.045 16.2307 125.345 15.988 124.505 15.988C123.702 15.988 123.021 16.2213 122.461 16.688C121.919 17.1547 121.583 17.8173 121.453 18.676H127.445ZM139.659 14.98C140.219 14.1213 140.919 13.4493 141.759 12.964C142.599 12.46 143.532 12.208 144.559 12.208V17.276H143.243C142.048 17.276 141.152 17.5373 140.555 18.06C139.957 18.564 139.659 19.46 139.659 20.748V28H134.871V12.376H139.659V14.98ZM149.087 28.224C148.247 28.224 147.556 27.9813 147.015 27.496C146.492 26.992 146.231 26.376 146.231 25.648C146.231 24.9013 146.492 24.276 147.015 23.772C147.556 23.268 148.247 23.016 149.087 23.016C149.908 23.016 150.58 23.268 151.103 23.772C151.644 24.276 151.915 24.9013 151.915 25.648C151.915 26.376 151.644 26.992 151.103 27.496C150.58 27.9813 149.908 28.224 149.087 28.224Z" fill="#121212"/>
</svg>
